<svg width="380" height="512" viewBox="0 0 380 512" fill="none" xmlns="http://www.w3.org/2000/svg">
<path d="M345.826 100.174V33.391H279.043V0H100.957V33.391H34.174V100.174H0.78299V278.261H34.174V478.609V512H100.957V478.609H134.348V512H167.739V478.609H212.261V512H245.652V478.609H279.043V512H345.826V478.609V278.261H379.217V100.174H345.826Z" fill="#FF5789"/>
<path d="M379.217 100.174H345.826V33.391H279.043V0H100.957V33.391H34.174V100.174H0.78299V278.261H34.174V345.043H100.957V378.435H279.043V345.043H345.826V278.261H379.217V100.174Z" fill="#FFE769"/>
<g filter="url(#filter0_d)">
<path d="M116 177.765L137.5 161.5L181.9 128.562V153.675V177.765V213.875V250.438V287H219V250.438H181.9H187.2H219V213.875V92H177L142 118.5L95 153.675L116 177.765Z" fill="black"/>
<path d="M95.7309 153.753L142.3 118.9L142.302 118.899L177.168 92.5H218.5V213.875V249.938H187.2H182.4V213.875V177.765V153.675V128.562V127.569L181.602 128.161L137.202 161.098L137.198 161.101L116.07 177.084L95.7309 153.753ZM218.5 250.938V286.5H182.4V250.938H187.2H218.5Z" stroke="black"/>
</g>
<path d="M279.044 0H100.957V33.391H279.044V0Z" fill="black"/>
<path d="M279.044 345.043H100.957V378.434H279.044V345.043Z" fill="black"/>
<path d="M67.565 66.783H100.957V33.391H34.174V100.174H67.565V66.783Z" fill="black"/>
<path d="M34.174 100.174H0.78299V278.261H34.174V100.174Z" fill="black"/>
<path d="M312.435 66.783V100.174H345.826V33.391H279.043V66.783H312.435Z" fill="black"/>
<path d="M379.217 100.174H345.826V278.261H379.217V100.174Z" fill="black"/>
<path d="M67.565 345.043H100.957V311.652H67.565V278.261H34.174V512H100.957V478.609H67.565V345.043Z" fill="black"/>
<path d="M312.435 311.652H279.043V345.043H312.435V478.609H279.043V512H345.826V278.261H312.435V311.652Z" fill="black"/>
<path d="M134.348 445.217H100.957V478.608H134.348V445.217Z" fill="black"/>
<path d="M245.652 478.609H212.261V512H245.652V478.609Z" fill="black"/>
<path d="M167.739 478.609H134.348V512H167.739V478.609Z" fill="black"/>
<path d="M212.261 445.217H167.739V478.608H212.261V445.217Z" fill="black"/>
<path d="M279.043 445.217H245.652V478.608H279.043V445.217Z" fill="black"/>
<defs>
<filter id="filter0_d" x="91" y="92" width="132" height="203" filterUnits="userSpaceOnUse" color-interpolation-filters="sRGB">
<feFlood flood-opacity="0" result="BackgroundImageFix"/>
<feColorMatrix in="SourceAlpha" type="matrix" values="0 0 0 0 0 0 0 0 0 0 0 0 0 0 0 0 0 0 127 0"/>
<feOffset dy="4"/>
<feGaussianBlur stdDeviation="2"/>
<feColorMatrix type="matrix" values="0 0 0 0 0 0 0 0 0 0 0 0 0 0 0 0 0 0 0.25 0"/>
<feBlend mode="normal" in2="BackgroundImageFix" result="effect1_dropShadow"/>
<feBlend mode="normal" in="SourceGraphic" in2="effect1_dropShadow" result="shape"/>
</filter>
</defs>
</svg>
