<svg width="379" height="512" viewBox="0 0 379 512" fill="none" xmlns="http://www.w3.org/2000/svg">
<path d="M345.043 100.174V33.391H278.26V0H100.174V33.391H33.391V100.174H0V278.261H33.391V478.609V512H100.174V478.609H133.565V512H166.956V478.609H211.478V512H244.869V478.609H278.26V512H345.043V478.609V278.261H378.434V100.174H345.043Z" fill="#77666B"/>
<path d="M378.434 100.174H345.043V33.391H278.26V0H100.174V33.391H33.391V100.174H0V278.261H33.391V345.043H100.174V378.435H278.26V345.043H345.043V278.261H378.434V100.174Z" fill="#A09C85"/>
<g filter="url(#filter0_d)">
<path d="M115.217 177.765L136.717 161.5L181.117 128.562V153.675V177.765V213.875V250.438V287H218.217V250.438H181.117H186.417H218.217V213.875V92H176.217L141.217 118.5L94.217 153.675L115.217 177.765Z" fill="black"/>
<path d="M94.9479 153.753L141.517 118.9L141.519 118.899L176.385 92.5H217.717V213.875V249.938H186.417H181.617V213.875V177.765V153.675V128.562V127.569L180.819 128.161L136.419 161.098L136.415 161.101L115.287 177.084L94.9479 153.753ZM217.717 250.938V286.5H181.617V250.938H186.417H217.717Z" stroke="black"/>
</g>
<path d="M278.261 0H100.174V33.391H278.261V0Z" fill="black"/>
<path d="M278.261 345.043H100.174V378.434H278.261V345.043Z" fill="black"/>
<path d="M66.782 66.783H100.174V33.391H33.391V100.174H66.782V66.783Z" fill="black"/>
<path d="M33.391 100.174H0V278.261H33.391V100.174Z" fill="black"/>
<path d="M311.652 66.783V100.174H345.043V33.391H278.26V66.783H311.652Z" fill="black"/>
<path d="M378.434 100.174H345.043V278.261H378.434V100.174Z" fill="black"/>
<path d="M66.782 345.043H100.174V311.652H66.782V278.261H33.391V512H100.174V478.609H66.782V345.043Z" fill="black"/>
<path d="M311.652 311.652H278.26V345.043H311.652V478.609H278.26V512H345.043V278.261H311.652V311.652Z" fill="black"/>
<path d="M133.565 445.217H100.174V478.608H133.565V445.217Z" fill="black"/>
<path d="M244.869 478.609H211.478V512H244.869V478.609Z" fill="black"/>
<path d="M166.956 478.609H133.565V512H166.956V478.609Z" fill="black"/>
<path d="M211.478 445.217H166.956V478.608H211.478V445.217Z" fill="black"/>
<path d="M278.26 445.217H244.869V478.608H278.26V445.217Z" fill="black"/>
<defs>
<filter id="filter0_d" x="90.217" y="92" width="132" height="203" filterUnits="userSpaceOnUse" color-interpolation-filters="sRGB">
<feFlood flood-opacity="0" result="BackgroundImageFix"/>
<feColorMatrix in="SourceAlpha" type="matrix" values="0 0 0 0 0 0 0 0 0 0 0 0 0 0 0 0 0 0 127 0"/>
<feOffset dy="4"/>
<feGaussianBlur stdDeviation="2"/>
<feColorMatrix type="matrix" values="0 0 0 0 0 0 0 0 0 0 0 0 0 0 0 0 0 0 0.25 0"/>
<feBlend mode="normal" in2="BackgroundImageFix" result="effect1_dropShadow"/>
<feBlend mode="normal" in="SourceGraphic" in2="effect1_dropShadow" result="shape"/>
</filter>
</defs>
</svg>
